<svg aria-roledescription="er" role="graphics-document document" viewBox="-135.98011016845703 0 474.40203857421875 598" style="max-width: 474.402px; background-color: white;" xmlns:xlink="http://www.w3.org/1999/xlink" xmlns="http://www.w3.org/2000/svg" width="100%" id="my-svg"><style>#my-svg{font-family:"trebuchet ms",verdana,arial,sans-serif;font-size:16px;fill:#000000;}#my-svg .error-icon{fill:#552222;}#my-svg .error-text{fill:#552222;stroke:#552222;}#my-svg .edge-thickness-normal{stroke-width:2px;}#my-svg .edge-thickness-thick{stroke-width:3.5px;}#my-svg .edge-pattern-solid{stroke-dasharray:0;}#my-svg .edge-pattern-dashed{stroke-dasharray:3;}#my-svg .edge-pattern-dotted{stroke-dasharray:2;}#my-svg .marker{fill:#000000;stroke:#000000;}#my-svg .marker.cross{stroke:#000000;}#my-svg svg{font-family:"trebuchet ms",verdana,arial,sans-serif;font-size:16px;}#my-svg .entityBox{fill:#cde498;stroke:#13540c;}#my-svg .attributeBoxOdd{fill:#ffffff;stroke:#13540c;}#my-svg .attributeBoxEven{fill:#f2f2f2;stroke:#13540c;}#my-svg .relationshipLabelBox{fill:hsl(78.1578947368, 58.4615384615%, 84.5098039216%);opacity:0.7;background-color:hsl(78.1578947368, 58.4615384615%, 84.5098039216%);}#my-svg .relationshipLabelBox rect{opacity:0.5;}#my-svg .relationshipLine{stroke:#000000;}#my-svg .entityTitleText{text-anchor:middle;font-size:18px;fill:#000000;}#my-svg #MD_PARENT_START{fill:#f5f5f5!important;stroke:#000000!important;stroke-width:1;}#my-svg #MD_PARENT_END{fill:#f5f5f5!important;stroke:#000000!important;stroke-width:1;}#my-svg :root{--mermaid-font-family:"trebuchet ms",verdana,arial,sans-serif;}</style><g/><defs><marker orient="auto" markerHeight="240" markerWidth="190" refY="7" refX="0" id="MD_PARENT_START"><path d="M 18,7 L9,13 L1,7 L9,1 Z"/></marker></defs><defs><marker orient="auto" markerHeight="28" markerWidth="20" refY="7" refX="19" id="MD_PARENT_END"><path d="M 18,7 L9,13 L1,7 L9,1 Z"/></marker></defs><defs><marker orient="auto" markerHeight="18" markerWidth="18" refY="9" refX="0" id="ONLY_ONE_START"><path d="M9,0 L9,18 M15,0 L15,18" fill="none" stroke="gray"/></marker></defs><defs><marker orient="auto" markerHeight="18" markerWidth="18" refY="9" refX="18" id="ONLY_ONE_END"><path d="M3,0 L3,18 M9,0 L9,18" fill="none" stroke="gray"/></marker></defs><defs><marker orient="auto" markerHeight="18" markerWidth="30" refY="9" refX="0" id="ZERO_OR_ONE_START"><circle r="6" cy="9" cx="21" fill="white" stroke="gray"/><path d="M9,0 L9,18" fill="none" stroke="gray"/></marker></defs><defs><marker orient="auto" markerHeight="18" markerWidth="30" refY="9" refX="30" id="ZERO_OR_ONE_END"><circle r="6" cy="9" cx="9" fill="white" stroke="gray"/><path d="M21,0 L21,18" fill="none" stroke="gray"/></marker></defs><defs><marker orient="auto" markerHeight="36" markerWidth="45" refY="18" refX="18" id="ONE_OR_MORE_START"><path d="M0,18 Q 18,0 36,18 Q 18,36 0,18 M42,9 L42,27" fill="none" stroke="gray"/></marker></defs><defs><marker orient="auto" markerHeight="36" markerWidth="45" refY="18" refX="27" id="ONE_OR_MORE_END"><path d="M3,9 L3,27 M9,18 Q27,0 45,18 Q27,36 9,18" fill="none" stroke="gray"/></marker></defs><defs><marker orient="auto" markerHeight="36" markerWidth="57" refY="18" refX="18" id="ZERO_OR_MORE_START"><circle r="6" cy="18" cx="48" fill="white" stroke="gray"/><path d="M0,18 Q18,0 36,18 Q18,36 0,18" fill="none" stroke="gray"/></marker></defs><defs><marker orient="auto" markerHeight="36" markerWidth="57" refY="18" refX="39" id="ZERO_OR_MORE_END"><circle r="6" cy="18" cx="9" fill="white" stroke="gray"/><path d="M21,18 Q39,0 57,18 Q39,36 21,18" fill="none" stroke="gray"/></marker></defs><path style="stroke: gray; fill: none;" marker-start="url(#ZERO_OR_MORE_START)" marker-end="url(#ZERO_OR_MORE_END)" d="M67.52218155633835,88L62.56186409602089,96.33333333333333C57.601546635703436,104.66666666666667,47.68091171506851,121.33333333333333,46.65141186481395,138C45.62191201455938,154.66666666666666,53.48354723468517,171.33333333333334,57.41436484474806,179.66666666666666L61.34518245481095,188" class="er relationshipLine"/><path style="stroke: gray; fill: none;" marker-start="url(#ZERO_OR_MORE_START)" marker-end="url(#ZERO_OR_MORE_END)" d="M37.760276794433594,76.84096605870062L15.446920394897461,87.0341383822505C-6.866436004638672,97.2273107058004,-51.49314880371094,117.6136553529002,-73.80650520324707,145.47349434311676C-96.1198616027832,173.33333333333334,-96.1198616027832,208.66666666666666,-96.1198616027832,244C-96.1198616027832,279.3333333333333,-96.1198616027832,314.6666666666667,-64.24179967244466,348.8819067862914C-32.36373774210612,383.0971469059161,31.392386118570965,416.1942938118321,63.27044804890951,432.74286726479016L95.14850997924805,449.2914407177482" class="er relationshipLine"/><path style="stroke: gray; fill: none;" marker-start="url(#ZERO_OR_MORE_START)" marker-end="url(#ZERO_OR_MORE_END)" d="M87.7602767944336,300L87.7602767944336,308.3333333333333C87.7602767944336,316.6666666666667,87.7602767944336,333.3333333333333,92.78906207004611,350C97.81784734565862,366.6666666666667,107.87541789688366,383.3333333333333,112.90420317249618,391.6666666666667L117.9329884481087,400" class="er relationshipLine"/><path style="stroke: gray; fill: none;" marker-start="url(#ZERO_OR_ONE_START)" marker-end="url(#ZERO_OR_ONE_END)" d="M114.17537113405623,188L118.10618874411914,179.66666666666666C122.03700635418203,171.33333333333334,129.89864157430782,154.66666666666666,128.86914172405326,138C127.83964187379867,121.33333333333333,117.91900695316376,104.66666666666667,112.95868949284629,96.33333333333333L107.99837203252883,88" class="er relationshipLine"/><path style="stroke: gray; fill: none;" marker-start="url(#ZERO_OR_ONE_START)" marker-end="url(#ONLY_ONE_END)" d="M235.66919217006767,400L241.66439600699812,391.6666666666667C247.6595998439286,383.3333333333333,259.65000751778945,366.6666666666667,265.64521135471995,340.6666666666667C271.6404151916504,314.6666666666667,271.6404151916504,279.3333333333333,271.6404151916504,244C271.6404151916504,208.66666666666666,271.6404151916504,173.33333333333334,249.32705879211426,145.47349434311676C227.01370239257812,117.6136553529002,182.38698959350586,97.2273107058004,160.07363319396973,87.0341383822505L137.7602767944336,76.84096605870062" class="er relationshipLine"/><path style="stroke: gray; fill: none;" marker-start="url(#ZERO_OR_ONE_START)" marker-end="url(#ONLY_ONE_END)" d="M248.13232040405273,435.8381258773804L268.71700286865234,421.5317715644837C289.30168533325195,407.225417251587,330.4710502624512,378.61270862579346,315.0357557932536,350.8566019753801C299.60046132405597,323.1004953249668,227.56050745646158,296.2009906499336,191.5405305226644,282.751238312417L155.5205535888672,269.3014859749004" class="er relationshipLine"/><g transform="translate(37.760276794433594,20 )" id="entity-Organization-ef1721ab-1f62-5ef5-a525-a6c60c2f6032"><rect height="68" width="100" y="0" x="0" class="er entityBox"/><text style="dominant-baseline: middle; text-anchor: middle; font-size: 12px;" transform="translate(50,12)" y="0" x="0" id="text-entity-Organization-ef1721ab-1f62-5ef5-a525-a6c60c2f6032" class="er entityLabel">Organization</text><rect height="22" width="38.90184020996094" y="24" x="0" class="er attributeBoxOdd"/><text style="dominant-baseline: middle; font-size: 10.2px;" transform="translate(5,35)" y="0" x="0" id="text-entity-Organization-ef1721ab-1f62-5ef5-a525-a6c60c2f6032-attr-1-type" class="er entityLabel">Int</text><rect height="22" width="36.904693603515625" y="24" x="38.90184020996094" class="er attributeBoxOdd"/><text style="dominant-baseline: middle; font-size: 10.2px;" transform="translate(43.90184020996094,35)" y="0" x="0" id="text-entity-Organization-ef1721ab-1f62-5ef5-a525-a6c60c2f6032-attr-1-name" class="er entityLabel">id</text><rect height="22" width="24.193466186523438" y="24" x="75.80653381347656" class="er attributeBoxOdd"/><text style="dominant-baseline: middle; font-size: 10.2px;" transform="translate(80.80653381347656,35)" y="0" x="0" id="text-entity-Organization-ef1721ab-1f62-5ef5-a525-a6c60c2f6032-attr-1-comment" class="er entityLabel">PK</text><rect height="22" width="38.90184020996094" y="46" x="0" class="er attributeBoxEven"/><text style="dominant-baseline: middle; font-size: 10.2px;" transform="translate(5,57)" y="0" x="0" id="text-entity-Organization-ef1721ab-1f62-5ef5-a525-a6c60c2f6032-attr-2-type" class="er entityLabel">String</text><rect height="22" width="36.904693603515625" y="46" x="38.90184020996094" class="er attributeBoxEven"/><text style="dominant-baseline: middle; font-size: 10.2px;" transform="translate(43.90184020996094,57)" y="0" x="0" id="text-entity-Organization-ef1721ab-1f62-5ef5-a525-a6c60c2f6032-attr-2-name" class="er entityLabel">name</text><rect height="22" width="24.193466186523438" y="46" x="75.80653381347656" class="er attributeBoxEven"/><text style="dominant-baseline: middle; font-size: 10.2px;" transform="translate(80.80653381347656,57)" y="0" x="0" id="text-entity-Organization-ef1721ab-1f62-5ef5-a525-a6c60c2f6032-attr-2-comment" class="er entityLabel"/></g><g transform="translate(20,188 )" id="entity-Item-8a1f935b-4333-55f4-bdb2-98b6af61c805"><rect height="112" width="135.5205535888672" y="0" x="0" class="er entityBox"/><text style="dominant-baseline: middle; text-anchor: middle; font-size: 12px;" transform="translate(67.7602767944336,12)" y="0" x="0" id="text-entity-Item-8a1f935b-4333-55f4-bdb2-98b6af61c805" class="er entityLabel">Item</text><rect height="22" width="37.39605712890625" y="24" x="0" class="er attributeBoxOdd"/><text style="dominant-baseline: middle; font-size: 10.2px;" transform="translate(5,35)" y="0" x="0" id="text-entity-Item-8a1f935b-4333-55f4-bdb2-98b6af61c805-attr-1-type" class="er entityLabel">Int</text><rect height="22" width="75.43681335449219" y="24" x="37.39605712890625" class="er attributeBoxOdd"/><text style="dominant-baseline: middle; font-size: 10.2px;" transform="translate(42.39605712890625,35)" y="0" x="0" id="text-entity-Item-8a1f935b-4333-55f4-bdb2-98b6af61c805-attr-1-name" class="er entityLabel">id</text><rect height="22" width="22.68768310546875" y="24" x="112.83287048339844" class="er attributeBoxOdd"/><text style="dominant-baseline: middle; font-size: 10.2px;" transform="translate(117.83287048339844,35)" y="0" x="0" id="text-entity-Item-8a1f935b-4333-55f4-bdb2-98b6af61c805-attr-1-comment" class="er entityLabel">PK</text><rect height="22" width="37.39605712890625" y="46" x="0" class="er attributeBoxEven"/><text style="dominant-baseline: middle; font-size: 10.2px;" transform="translate(5,57)" y="0" x="0" id="text-entity-Item-8a1f935b-4333-55f4-bdb2-98b6af61c805-attr-2-type" class="er entityLabel">Int</text><rect height="22" width="75.43681335449219" y="46" x="37.39605712890625" class="er attributeBoxEven"/><text style="dominant-baseline: middle; font-size: 10.2px;" transform="translate(42.39605712890625,57)" y="0" x="0" id="text-entity-Item-8a1f935b-4333-55f4-bdb2-98b6af61c805-attr-2-name" class="er entityLabel">organizationId</text><rect height="22" width="22.68768310546875" y="46" x="112.83287048339844" class="er attributeBoxEven"/><text style="dominant-baseline: middle; font-size: 10.2px;" transform="translate(117.83287048339844,57)" y="0" x="0" id="text-entity-Item-8a1f935b-4333-55f4-bdb2-98b6af61c805-attr-2-comment" class="er entityLabel"/><rect height="22" width="37.39605712890625" y="68" x="0" class="er attributeBoxOdd"/><text style="dominant-baseline: middle; font-size: 10.2px;" transform="translate(5,79)" y="0" x="0" id="text-entity-Item-8a1f935b-4333-55f4-bdb2-98b6af61c805-attr-3-type" class="er entityLabel">String</text><rect height="22" width="75.43681335449219" y="68" x="37.39605712890625" class="er attributeBoxOdd"/><text style="dominant-baseline: middle; font-size: 10.2px;" transform="translate(42.39605712890625,79)" y="0" x="0" id="text-entity-Item-8a1f935b-4333-55f4-bdb2-98b6af61c805-attr-3-name" class="er entityLabel">type</text><rect height="22" width="22.68768310546875" y="68" x="112.83287048339844" class="er attributeBoxOdd"/><text style="dominant-baseline: middle; font-size: 10.2px;" transform="translate(117.83287048339844,79)" y="0" x="0" id="text-entity-Item-8a1f935b-4333-55f4-bdb2-98b6af61c805-attr-3-comment" class="er entityLabel"/><rect height="22" width="37.39605712890625" y="90" x="0" class="er attributeBoxEven"/><text style="dominant-baseline: middle; font-size: 10.2px;" transform="translate(5,101)" y="0" x="0" id="text-entity-Item-8a1f935b-4333-55f4-bdb2-98b6af61c805-attr-4-type" class="er entityLabel">String</text><rect height="22" width="75.43681335449219" y="90" x="37.39605712890625" class="er attributeBoxEven"/><text style="dominant-baseline: middle; font-size: 10.2px;" transform="translate(42.39605712890625,101)" y="0" x="0" id="text-entity-Item-8a1f935b-4333-55f4-bdb2-98b6af61c805-attr-4-name" class="er entityLabel">description</text><rect height="22" width="22.68768310546875" y="90" x="112.83287048339844" class="er attributeBoxEven"/><text style="dominant-baseline: middle; font-size: 10.2px;" transform="translate(117.83287048339844,101)" y="0" x="0" id="text-entity-Item-8a1f935b-4333-55f4-bdb2-98b6af61c805-attr-4-comment" class="er entityLabel"/></g><g transform="translate(95.14850997924805,400 )" id="entity-Pricing-cfd59122-3490-547e-885f-a42472251066"><rect height="178" width="152.9838104248047" y="0" x="0" class="er entityBox"/><text style="dominant-baseline: middle; text-anchor: middle; font-size: 12px;" transform="translate(76.49190521240234,12)" y="0" x="0" id="text-entity-Pricing-cfd59122-3490-547e-885f-a42472251066" class="er entityLabel">Pricing</text><rect height="22" width="37.39605712890625" y="24" x="0" class="er attributeBoxOdd"/><text style="dominant-baseline: middle; font-size: 10.2px;" transform="translate(5,35)" y="0" x="0" id="text-entity-Pricing-cfd59122-3490-547e-885f-a42472251066-attr-1-type" class="er entityLabel">Int</text><rect height="22" width="92.90007019042969" y="24" x="37.39605712890625" class="er attributeBoxOdd"/><text style="dominant-baseline: middle; font-size: 10.2px;" transform="translate(42.39605712890625,35)" y="0" x="0" id="text-entity-Pricing-cfd59122-3490-547e-885f-a42472251066-attr-1-name" class="er entityLabel">id</text><rect height="22" width="22.68768310546875" y="24" x="130.29612731933594" class="er attributeBoxOdd"/><text style="dominant-baseline: middle; font-size: 10.2px;" transform="translate(135.29612731933594,35)" y="0" x="0" id="text-entity-Pricing-cfd59122-3490-547e-885f-a42472251066-attr-1-comment" class="er entityLabel">PK</text><rect height="22" width="37.39605712890625" y="46" x="0" class="er attributeBoxEven"/><text style="dominant-baseline: middle; font-size: 10.2px;" transform="translate(5,57)" y="0" x="0" id="text-entity-Pricing-cfd59122-3490-547e-885f-a42472251066-attr-2-type" class="er entityLabel">Int</text><rect height="22" width="92.90007019042969" y="46" x="37.39605712890625" class="er attributeBoxEven"/><text style="dominant-baseline: middle; font-size: 10.2px;" transform="translate(42.39605712890625,57)" y="0" x="0" id="text-entity-Pricing-cfd59122-3490-547e-885f-a42472251066-attr-2-name" class="er entityLabel">organizationId</text><rect height="22" width="22.68768310546875" y="46" x="130.29612731933594" class="er attributeBoxEven"/><text style="dominant-baseline: middle; font-size: 10.2px;" transform="translate(135.29612731933594,57)" y="0" x="0" id="text-entity-Pricing-cfd59122-3490-547e-885f-a42472251066-attr-2-comment" class="er entityLabel"/><rect height="22" width="37.39605712890625" y="68" x="0" class="er attributeBoxOdd"/><text style="dominant-baseline: middle; font-size: 10.2px;" transform="translate(5,79)" y="0" x="0" id="text-entity-Pricing-cfd59122-3490-547e-885f-a42472251066-attr-3-type" class="er entityLabel">Int</text><rect height="22" width="92.90007019042969" y="68" x="37.39605712890625" class="er attributeBoxOdd"/><text style="dominant-baseline: middle; font-size: 10.2px;" transform="translate(42.39605712890625,79)" y="0" x="0" id="text-entity-Pricing-cfd59122-3490-547e-885f-a42472251066-attr-3-name" class="er entityLabel">itemId</text><rect height="22" width="22.68768310546875" y="68" x="130.29612731933594" class="er attributeBoxOdd"/><text style="dominant-baseline: middle; font-size: 10.2px;" transform="translate(135.29612731933594,79)" y="0" x="0" id="text-entity-Pricing-cfd59122-3490-547e-885f-a42472251066-attr-3-comment" class="er entityLabel"/><rect height="22" width="37.39605712890625" y="90" x="0" class="er attributeBoxEven"/><text style="dominant-baseline: middle; font-size: 10.2px;" transform="translate(5,101)" y="0" x="0" id="text-entity-Pricing-cfd59122-3490-547e-885f-a42472251066-attr-4-type" class="er entityLabel">String</text><rect height="22" width="92.90007019042969" y="90" x="37.39605712890625" class="er attributeBoxEven"/><text style="dominant-baseline: middle; font-size: 10.2px;" transform="translate(42.39605712890625,101)" y="0" x="0" id="text-entity-Pricing-cfd59122-3490-547e-885f-a42472251066-attr-4-name" class="er entityLabel">zone</text><rect height="22" width="22.68768310546875" y="90" x="130.29612731933594" class="er attributeBoxEven"/><text style="dominant-baseline: middle; font-size: 10.2px;" transform="translate(135.29612731933594,101)" y="0" x="0" id="text-entity-Pricing-cfd59122-3490-547e-885f-a42472251066-attr-4-comment" class="er entityLabel"/><rect height="22" width="37.39605712890625" y="112" x="0" class="er attributeBoxOdd"/><text style="dominant-baseline: middle; font-size: 10.2px;" transform="translate(5,123)" y="0" x="0" id="text-entity-Pricing-cfd59122-3490-547e-885f-a42472251066-attr-5-type" class="er entityLabel">Float</text><rect height="22" width="92.90007019042969" y="112" x="37.39605712890625" class="er attributeBoxOdd"/><text style="dominant-baseline: middle; font-size: 10.2px;" transform="translate(42.39605712890625,123)" y="0" x="0" id="text-entity-Pricing-cfd59122-3490-547e-885f-a42472251066-attr-5-name" class="er entityLabel">baseDistanceInKm</text><rect height="22" width="22.68768310546875" y="112" x="130.29612731933594" class="er attributeBoxOdd"/><text style="dominant-baseline: middle; font-size: 10.2px;" transform="translate(135.29612731933594,123)" y="0" x="0" id="text-entity-Pricing-cfd59122-3490-547e-885f-a42472251066-attr-5-comment" class="er entityLabel"/><rect height="22" width="37.39605712890625" y="134" x="0" class="er attributeBoxEven"/><text style="dominant-baseline: middle; font-size: 10.2px;" transform="translate(5,145)" y="0" x="0" id="text-entity-Pricing-cfd59122-3490-547e-885f-a42472251066-attr-6-type" class="er entityLabel">Float</text><rect height="22" width="92.90007019042969" y="134" x="37.39605712890625" class="er attributeBoxEven"/><text style="dominant-baseline: middle; font-size: 10.2px;" transform="translate(42.39605712890625,145)" y="0" x="0" id="text-entity-Pricing-cfd59122-3490-547e-885f-a42472251066-attr-6-name" class="er entityLabel">kmPrice</text><rect height="22" width="22.68768310546875" y="134" x="130.29612731933594" class="er attributeBoxEven"/><text style="dominant-baseline: middle; font-size: 10.2px;" transform="translate(135.29612731933594,145)" y="0" x="0" id="text-entity-Pricing-cfd59122-3490-547e-885f-a42472251066-attr-6-comment" class="er entityLabel"/><rect height="22" width="37.39605712890625" y="156" x="0" class="er attributeBoxOdd"/><text style="dominant-baseline: middle; font-size: 10.2px;" transform="translate(5,167)" y="0" x="0" id="text-entity-Pricing-cfd59122-3490-547e-885f-a42472251066-attr-7-type" class="er entityLabel">Float</text><rect height="22" width="92.90007019042969" y="156" x="37.39605712890625" class="er attributeBoxOdd"/><text style="dominant-baseline: middle; font-size: 10.2px;" transform="translate(42.39605712890625,167)" y="0" x="0" id="text-entity-Pricing-cfd59122-3490-547e-885f-a42472251066-attr-7-name" class="er entityLabel">fixPrice</text><rect height="22" width="22.68768310546875" y="156" x="130.29612731933594" class="er attributeBoxOdd"/><text style="dominant-baseline: middle; font-size: 10.2px;" transform="translate(135.29612731933594,167)" y="0" x="0" id="text-entity-Pricing-cfd59122-3490-547e-885f-a42472251066-attr-7-comment" class="er entityLabel"/></g><rect height="14" width="29.685546875" y="129.9991912841797" x="31.881080627441406" class="er relationshipLabelBox"/><text style="text-anchor: middle; dominant-baseline: middle; font-size: 12px;" y="136.9991912841797" x="46.723854064941406" id="rel1" class="er relationshipLabel">items</text><rect height="14" width="41.71484375" y="270.359375" x="-115.98011016845703" class="er relationshipLabelBox"/><text style="text-anchor: middle; dominant-baseline: middle; font-size: 12px;" y="277.359375" x="-95.12268829345703" id="rel2" class="er relationshipLabel">pricings</text><rect height="14" width="41.71484375" y="345.6974792480469" x="72.78839111328125" class="er relationshipLabelBox"/><text style="text-anchor: middle; dominant-baseline: middle; font-size: 12px;" y="352.6974792480469" x="93.64581298828125" id="rel3" class="er relationshipLabel">pricings</text><rect height="14" width="68.67578125" y="129.99917602539062" x="94.45881652832031" class="er relationshipLabelBox"/><text style="text-anchor: middle; dominant-baseline: middle; font-size: 12px;" y="136.99917602539062" x="128.7967071533203" id="rel4" class="er relationshipLabel">Organization</text><rect height="14" width="68.67578125" y="201.41287231445312" x="236.43704223632812" class="er relationshipLabelBox"/><text style="text-anchor: middle; dominant-baseline: middle; font-size: 12px;" y="208.41287231445312" x="270.7749328613281" id="rel5" class="er relationshipLabel">Organization</text><rect height="14" width="24.642578125" y="321.893798828125" x="279.7808837890625" class="er relationshipLabelBox"/><text style="text-anchor: middle; dominant-baseline: middle; font-size: 12px;" y="328.893798828125" x="292.1021728515625" id="rel6" class="er relationshipLabel">Item</text></svg>